%TF.GenerationSoftware,KiCad,Pcbnew,9.0.3*%
%TF.CreationDate,2025-11-11T20:03:33+05:30*%
%TF.ProjectId,mixed sig pcb(using microcontroller),6d697865-6420-4736-9967-207063622875,rev?*%
%TF.SameCoordinates,Original*%
%TF.FileFunction,Drillmap*%
%TF.FilePolarity,Positive*%
%FSLAX45Y45*%
G04 Gerber Fmt 4.5, Leading zero omitted, Abs format (unit mm)*
G04 Created by KiCad (PCBNEW 9.0.3) date 2025-11-11 20:03:33*
%MOMM*%
%LPD*%
G01*
G04 APERTURE LIST*
%ADD10C,0.050000*%
%ADD11C,0.200000*%
%ADD12C,0.100000*%
G04 APERTURE END LIST*
D10*
X14200000Y-8160000D02*
X17440000Y-8160000D01*
X17440000Y-11440000D01*
X14200000Y-11440000D01*
X14200000Y-8160000D01*
D11*
D12*
X16045000Y-10925000D02*
X16075000Y-10955000D01*
X16075000Y-10925000D02*
X16045000Y-10955000D01*
X14890000Y-9432500D02*
G75*
G02*
X14790000Y-9432500I-50000J0D01*
G01*
X14790000Y-9432500D02*
G75*
G02*
X14890000Y-9432500I50000J0D01*
G01*
X14890000Y-9686500D02*
G75*
G02*
X14790000Y-9686500I-50000J0D01*
G01*
X14790000Y-9686500D02*
G75*
G02*
X14890000Y-9686500I50000J0D01*
G01*
X17250000Y-9253500D02*
G75*
G02*
X17150000Y-9253500I-50000J0D01*
G01*
X17150000Y-9253500D02*
G75*
G02*
X17250000Y-9253500I50000J0D01*
G01*
X17250000Y-9507500D02*
G75*
G02*
X17150000Y-9507500I-50000J0D01*
G01*
X17150000Y-9507500D02*
G75*
G02*
X17250000Y-9507500I50000J0D01*
G01*
D11*
X14458277Y-11753984D02*
X14458277Y-11553984D01*
X14458277Y-11553984D02*
X14505896Y-11553984D01*
X14505896Y-11553984D02*
X14534467Y-11563508D01*
X14534467Y-11563508D02*
X14553515Y-11582555D01*
X14553515Y-11582555D02*
X14563039Y-11601603D01*
X14563039Y-11601603D02*
X14572562Y-11639698D01*
X14572562Y-11639698D02*
X14572562Y-11668269D01*
X14572562Y-11668269D02*
X14563039Y-11706365D01*
X14563039Y-11706365D02*
X14553515Y-11725412D01*
X14553515Y-11725412D02*
X14534467Y-11744460D01*
X14534467Y-11744460D02*
X14505896Y-11753984D01*
X14505896Y-11753984D02*
X14458277Y-11753984D01*
X14658277Y-11753984D02*
X14658277Y-11620650D01*
X14658277Y-11658746D02*
X14667801Y-11639698D01*
X14667801Y-11639698D02*
X14677324Y-11630174D01*
X14677324Y-11630174D02*
X14696372Y-11620650D01*
X14696372Y-11620650D02*
X14715420Y-11620650D01*
X14782086Y-11753984D02*
X14782086Y-11620650D01*
X14782086Y-11553984D02*
X14772562Y-11563508D01*
X14772562Y-11563508D02*
X14782086Y-11573031D01*
X14782086Y-11573031D02*
X14791610Y-11563508D01*
X14791610Y-11563508D02*
X14782086Y-11553984D01*
X14782086Y-11553984D02*
X14782086Y-11573031D01*
X14905896Y-11753984D02*
X14886848Y-11744460D01*
X14886848Y-11744460D02*
X14877324Y-11725412D01*
X14877324Y-11725412D02*
X14877324Y-11553984D01*
X15010658Y-11753984D02*
X14991610Y-11744460D01*
X14991610Y-11744460D02*
X14982086Y-11725412D01*
X14982086Y-11725412D02*
X14982086Y-11553984D01*
X15239229Y-11753984D02*
X15239229Y-11553984D01*
X15239229Y-11553984D02*
X15305896Y-11696841D01*
X15305896Y-11696841D02*
X15372562Y-11553984D01*
X15372562Y-11553984D02*
X15372562Y-11753984D01*
X15553515Y-11753984D02*
X15553515Y-11649222D01*
X15553515Y-11649222D02*
X15543991Y-11630174D01*
X15543991Y-11630174D02*
X15524943Y-11620650D01*
X15524943Y-11620650D02*
X15486848Y-11620650D01*
X15486848Y-11620650D02*
X15467801Y-11630174D01*
X15553515Y-11744460D02*
X15534467Y-11753984D01*
X15534467Y-11753984D02*
X15486848Y-11753984D01*
X15486848Y-11753984D02*
X15467801Y-11744460D01*
X15467801Y-11744460D02*
X15458277Y-11725412D01*
X15458277Y-11725412D02*
X15458277Y-11706365D01*
X15458277Y-11706365D02*
X15467801Y-11687317D01*
X15467801Y-11687317D02*
X15486848Y-11677793D01*
X15486848Y-11677793D02*
X15534467Y-11677793D01*
X15534467Y-11677793D02*
X15553515Y-11668269D01*
X15648753Y-11620650D02*
X15648753Y-11820650D01*
X15648753Y-11630174D02*
X15667801Y-11620650D01*
X15667801Y-11620650D02*
X15705896Y-11620650D01*
X15705896Y-11620650D02*
X15724943Y-11630174D01*
X15724943Y-11630174D02*
X15734467Y-11639698D01*
X15734467Y-11639698D02*
X15743991Y-11658746D01*
X15743991Y-11658746D02*
X15743991Y-11715888D01*
X15743991Y-11715888D02*
X15734467Y-11734936D01*
X15734467Y-11734936D02*
X15724943Y-11744460D01*
X15724943Y-11744460D02*
X15705896Y-11753984D01*
X15705896Y-11753984D02*
X15667801Y-11753984D01*
X15667801Y-11753984D02*
X15648753Y-11744460D01*
X15829705Y-11734936D02*
X15839229Y-11744460D01*
X15839229Y-11744460D02*
X15829705Y-11753984D01*
X15829705Y-11753984D02*
X15820182Y-11744460D01*
X15820182Y-11744460D02*
X15829705Y-11734936D01*
X15829705Y-11734936D02*
X15829705Y-11753984D01*
X15829705Y-11630174D02*
X15839229Y-11639698D01*
X15839229Y-11639698D02*
X15829705Y-11649222D01*
X15829705Y-11649222D02*
X15820182Y-11639698D01*
X15820182Y-11639698D02*
X15829705Y-11630174D01*
X15829705Y-11630174D02*
X15829705Y-11649222D01*
D12*
X14167500Y-12067500D02*
X14197500Y-12097500D01*
X14197500Y-12067500D02*
X14167500Y-12097500D01*
D11*
X14496372Y-11973984D02*
X14515420Y-11973984D01*
X14515420Y-11973984D02*
X14534467Y-11983508D01*
X14534467Y-11983508D02*
X14543991Y-11993031D01*
X14543991Y-11993031D02*
X14553515Y-12012079D01*
X14553515Y-12012079D02*
X14563039Y-12050174D01*
X14563039Y-12050174D02*
X14563039Y-12097793D01*
X14563039Y-12097793D02*
X14553515Y-12135888D01*
X14553515Y-12135888D02*
X14543991Y-12154936D01*
X14543991Y-12154936D02*
X14534467Y-12164460D01*
X14534467Y-12164460D02*
X14515420Y-12173984D01*
X14515420Y-12173984D02*
X14496372Y-12173984D01*
X14496372Y-12173984D02*
X14477324Y-12164460D01*
X14477324Y-12164460D02*
X14467801Y-12154936D01*
X14467801Y-12154936D02*
X14458277Y-12135888D01*
X14458277Y-12135888D02*
X14448753Y-12097793D01*
X14448753Y-12097793D02*
X14448753Y-12050174D01*
X14448753Y-12050174D02*
X14458277Y-12012079D01*
X14458277Y-12012079D02*
X14467801Y-11993031D01*
X14467801Y-11993031D02*
X14477324Y-11983508D01*
X14477324Y-11983508D02*
X14496372Y-11973984D01*
X14648753Y-12154936D02*
X14658277Y-12164460D01*
X14658277Y-12164460D02*
X14648753Y-12173984D01*
X14648753Y-12173984D02*
X14639229Y-12164460D01*
X14639229Y-12164460D02*
X14648753Y-12154936D01*
X14648753Y-12154936D02*
X14648753Y-12173984D01*
X14724943Y-11973984D02*
X14848753Y-11973984D01*
X14848753Y-11973984D02*
X14782086Y-12050174D01*
X14782086Y-12050174D02*
X14810658Y-12050174D01*
X14810658Y-12050174D02*
X14829705Y-12059698D01*
X14829705Y-12059698D02*
X14839229Y-12069222D01*
X14839229Y-12069222D02*
X14848753Y-12088269D01*
X14848753Y-12088269D02*
X14848753Y-12135888D01*
X14848753Y-12135888D02*
X14839229Y-12154936D01*
X14839229Y-12154936D02*
X14829705Y-12164460D01*
X14829705Y-12164460D02*
X14810658Y-12173984D01*
X14810658Y-12173984D02*
X14753515Y-12173984D01*
X14753515Y-12173984D02*
X14734467Y-12164460D01*
X14734467Y-12164460D02*
X14724943Y-12154936D01*
X14972562Y-11973984D02*
X14991610Y-11973984D01*
X14991610Y-11973984D02*
X15010658Y-11983508D01*
X15010658Y-11983508D02*
X15020182Y-11993031D01*
X15020182Y-11993031D02*
X15029705Y-12012079D01*
X15029705Y-12012079D02*
X15039229Y-12050174D01*
X15039229Y-12050174D02*
X15039229Y-12097793D01*
X15039229Y-12097793D02*
X15029705Y-12135888D01*
X15029705Y-12135888D02*
X15020182Y-12154936D01*
X15020182Y-12154936D02*
X15010658Y-12164460D01*
X15010658Y-12164460D02*
X14991610Y-12173984D01*
X14991610Y-12173984D02*
X14972562Y-12173984D01*
X14972562Y-12173984D02*
X14953515Y-12164460D01*
X14953515Y-12164460D02*
X14943991Y-12154936D01*
X14943991Y-12154936D02*
X14934467Y-12135888D01*
X14934467Y-12135888D02*
X14924943Y-12097793D01*
X14924943Y-12097793D02*
X14924943Y-12050174D01*
X14924943Y-12050174D02*
X14934467Y-12012079D01*
X14934467Y-12012079D02*
X14943991Y-11993031D01*
X14943991Y-11993031D02*
X14953515Y-11983508D01*
X14953515Y-11983508D02*
X14972562Y-11973984D01*
X15163039Y-11973984D02*
X15182086Y-11973984D01*
X15182086Y-11973984D02*
X15201134Y-11983508D01*
X15201134Y-11983508D02*
X15210658Y-11993031D01*
X15210658Y-11993031D02*
X15220182Y-12012079D01*
X15220182Y-12012079D02*
X15229705Y-12050174D01*
X15229705Y-12050174D02*
X15229705Y-12097793D01*
X15229705Y-12097793D02*
X15220182Y-12135888D01*
X15220182Y-12135888D02*
X15210658Y-12154936D01*
X15210658Y-12154936D02*
X15201134Y-12164460D01*
X15201134Y-12164460D02*
X15182086Y-12173984D01*
X15182086Y-12173984D02*
X15163039Y-12173984D01*
X15163039Y-12173984D02*
X15143991Y-12164460D01*
X15143991Y-12164460D02*
X15134467Y-12154936D01*
X15134467Y-12154936D02*
X15124943Y-12135888D01*
X15124943Y-12135888D02*
X15115420Y-12097793D01*
X15115420Y-12097793D02*
X15115420Y-12050174D01*
X15115420Y-12050174D02*
X15124943Y-12012079D01*
X15124943Y-12012079D02*
X15134467Y-11993031D01*
X15134467Y-11993031D02*
X15143991Y-11983508D01*
X15143991Y-11983508D02*
X15163039Y-11973984D01*
X15315420Y-12173984D02*
X15315420Y-12040650D01*
X15315420Y-12059698D02*
X15324943Y-12050174D01*
X15324943Y-12050174D02*
X15343991Y-12040650D01*
X15343991Y-12040650D02*
X15372563Y-12040650D01*
X15372563Y-12040650D02*
X15391610Y-12050174D01*
X15391610Y-12050174D02*
X15401134Y-12069222D01*
X15401134Y-12069222D02*
X15401134Y-12173984D01*
X15401134Y-12069222D02*
X15410658Y-12050174D01*
X15410658Y-12050174D02*
X15429705Y-12040650D01*
X15429705Y-12040650D02*
X15458277Y-12040650D01*
X15458277Y-12040650D02*
X15477324Y-12050174D01*
X15477324Y-12050174D02*
X15486848Y-12069222D01*
X15486848Y-12069222D02*
X15486848Y-12173984D01*
X15582086Y-12173984D02*
X15582086Y-12040650D01*
X15582086Y-12059698D02*
X15591610Y-12050174D01*
X15591610Y-12050174D02*
X15610658Y-12040650D01*
X15610658Y-12040650D02*
X15639229Y-12040650D01*
X15639229Y-12040650D02*
X15658277Y-12050174D01*
X15658277Y-12050174D02*
X15667801Y-12069222D01*
X15667801Y-12069222D02*
X15667801Y-12173984D01*
X15667801Y-12069222D02*
X15677324Y-12050174D01*
X15677324Y-12050174D02*
X15696372Y-12040650D01*
X15696372Y-12040650D02*
X15724943Y-12040650D01*
X15724943Y-12040650D02*
X15743991Y-12050174D01*
X15743991Y-12050174D02*
X15753515Y-12069222D01*
X15753515Y-12069222D02*
X15753515Y-12173984D01*
X16143991Y-11964460D02*
X15972563Y-12221603D01*
X16401134Y-11973984D02*
X16420182Y-11973984D01*
X16420182Y-11973984D02*
X16439229Y-11983508D01*
X16439229Y-11983508D02*
X16448753Y-11993031D01*
X16448753Y-11993031D02*
X16458277Y-12012079D01*
X16458277Y-12012079D02*
X16467801Y-12050174D01*
X16467801Y-12050174D02*
X16467801Y-12097793D01*
X16467801Y-12097793D02*
X16458277Y-12135888D01*
X16458277Y-12135888D02*
X16448753Y-12154936D01*
X16448753Y-12154936D02*
X16439229Y-12164460D01*
X16439229Y-12164460D02*
X16420182Y-12173984D01*
X16420182Y-12173984D02*
X16401134Y-12173984D01*
X16401134Y-12173984D02*
X16382086Y-12164460D01*
X16382086Y-12164460D02*
X16372563Y-12154936D01*
X16372563Y-12154936D02*
X16363039Y-12135888D01*
X16363039Y-12135888D02*
X16353515Y-12097793D01*
X16353515Y-12097793D02*
X16353515Y-12050174D01*
X16353515Y-12050174D02*
X16363039Y-12012079D01*
X16363039Y-12012079D02*
X16372563Y-11993031D01*
X16372563Y-11993031D02*
X16382086Y-11983508D01*
X16382086Y-11983508D02*
X16401134Y-11973984D01*
X16553515Y-12154936D02*
X16563039Y-12164460D01*
X16563039Y-12164460D02*
X16553515Y-12173984D01*
X16553515Y-12173984D02*
X16543991Y-12164460D01*
X16543991Y-12164460D02*
X16553515Y-12154936D01*
X16553515Y-12154936D02*
X16553515Y-12173984D01*
X16686848Y-11973984D02*
X16705896Y-11973984D01*
X16705896Y-11973984D02*
X16724944Y-11983508D01*
X16724944Y-11983508D02*
X16734467Y-11993031D01*
X16734467Y-11993031D02*
X16743991Y-12012079D01*
X16743991Y-12012079D02*
X16753515Y-12050174D01*
X16753515Y-12050174D02*
X16753515Y-12097793D01*
X16753515Y-12097793D02*
X16743991Y-12135888D01*
X16743991Y-12135888D02*
X16734467Y-12154936D01*
X16734467Y-12154936D02*
X16724944Y-12164460D01*
X16724944Y-12164460D02*
X16705896Y-12173984D01*
X16705896Y-12173984D02*
X16686848Y-12173984D01*
X16686848Y-12173984D02*
X16667801Y-12164460D01*
X16667801Y-12164460D02*
X16658277Y-12154936D01*
X16658277Y-12154936D02*
X16648753Y-12135888D01*
X16648753Y-12135888D02*
X16639229Y-12097793D01*
X16639229Y-12097793D02*
X16639229Y-12050174D01*
X16639229Y-12050174D02*
X16648753Y-12012079D01*
X16648753Y-12012079D02*
X16658277Y-11993031D01*
X16658277Y-11993031D02*
X16667801Y-11983508D01*
X16667801Y-11983508D02*
X16686848Y-11973984D01*
X16943991Y-12173984D02*
X16829706Y-12173984D01*
X16886848Y-12173984D02*
X16886848Y-11973984D01*
X16886848Y-11973984D02*
X16867801Y-12002555D01*
X16867801Y-12002555D02*
X16848753Y-12021603D01*
X16848753Y-12021603D02*
X16829706Y-12031127D01*
X17134468Y-12173984D02*
X17020182Y-12173984D01*
X17077325Y-12173984D02*
X17077325Y-11973984D01*
X17077325Y-11973984D02*
X17058277Y-12002555D01*
X17058277Y-12002555D02*
X17039229Y-12021603D01*
X17039229Y-12021603D02*
X17020182Y-12031127D01*
X17248753Y-12059698D02*
X17229706Y-12050174D01*
X17229706Y-12050174D02*
X17220182Y-12040650D01*
X17220182Y-12040650D02*
X17210658Y-12021603D01*
X17210658Y-12021603D02*
X17210658Y-12012079D01*
X17210658Y-12012079D02*
X17220182Y-11993031D01*
X17220182Y-11993031D02*
X17229706Y-11983508D01*
X17229706Y-11983508D02*
X17248753Y-11973984D01*
X17248753Y-11973984D02*
X17286849Y-11973984D01*
X17286849Y-11973984D02*
X17305896Y-11983508D01*
X17305896Y-11983508D02*
X17315420Y-11993031D01*
X17315420Y-11993031D02*
X17324944Y-12012079D01*
X17324944Y-12012079D02*
X17324944Y-12021603D01*
X17324944Y-12021603D02*
X17315420Y-12040650D01*
X17315420Y-12040650D02*
X17305896Y-12050174D01*
X17305896Y-12050174D02*
X17286849Y-12059698D01*
X17286849Y-12059698D02*
X17248753Y-12059698D01*
X17248753Y-12059698D02*
X17229706Y-12069222D01*
X17229706Y-12069222D02*
X17220182Y-12078746D01*
X17220182Y-12078746D02*
X17210658Y-12097793D01*
X17210658Y-12097793D02*
X17210658Y-12135888D01*
X17210658Y-12135888D02*
X17220182Y-12154936D01*
X17220182Y-12154936D02*
X17229706Y-12164460D01*
X17229706Y-12164460D02*
X17248753Y-12173984D01*
X17248753Y-12173984D02*
X17286849Y-12173984D01*
X17286849Y-12173984D02*
X17305896Y-12164460D01*
X17305896Y-12164460D02*
X17315420Y-12154936D01*
X17315420Y-12154936D02*
X17324944Y-12135888D01*
X17324944Y-12135888D02*
X17324944Y-12097793D01*
X17324944Y-12097793D02*
X17315420Y-12078746D01*
X17315420Y-12078746D02*
X17305896Y-12069222D01*
X17305896Y-12069222D02*
X17286849Y-12059698D01*
X17401134Y-11973984D02*
X17401134Y-12012079D01*
X17477325Y-11973984D02*
X17477325Y-12012079D01*
X17772563Y-12250174D02*
X17763039Y-12240650D01*
X17763039Y-12240650D02*
X17743991Y-12212079D01*
X17743991Y-12212079D02*
X17734468Y-12193031D01*
X17734468Y-12193031D02*
X17724944Y-12164460D01*
X17724944Y-12164460D02*
X17715420Y-12116841D01*
X17715420Y-12116841D02*
X17715420Y-12078746D01*
X17715420Y-12078746D02*
X17724944Y-12031127D01*
X17724944Y-12031127D02*
X17734468Y-12002555D01*
X17734468Y-12002555D02*
X17743991Y-11983508D01*
X17743991Y-11983508D02*
X17763039Y-11954936D01*
X17763039Y-11954936D02*
X17772563Y-11945412D01*
X17953515Y-12173984D02*
X17839230Y-12173984D01*
X17896372Y-12173984D02*
X17896372Y-11973984D01*
X17896372Y-11973984D02*
X17877325Y-12002555D01*
X17877325Y-12002555D02*
X17858277Y-12021603D01*
X17858277Y-12021603D02*
X17839230Y-12031127D01*
X18191611Y-12173984D02*
X18191611Y-11973984D01*
X18277325Y-12173984D02*
X18277325Y-12069222D01*
X18277325Y-12069222D02*
X18267801Y-12050174D01*
X18267801Y-12050174D02*
X18248753Y-12040650D01*
X18248753Y-12040650D02*
X18220182Y-12040650D01*
X18220182Y-12040650D02*
X18201134Y-12050174D01*
X18201134Y-12050174D02*
X18191611Y-12059698D01*
X18401134Y-12173984D02*
X18382087Y-12164460D01*
X18382087Y-12164460D02*
X18372563Y-12154936D01*
X18372563Y-12154936D02*
X18363039Y-12135888D01*
X18363039Y-12135888D02*
X18363039Y-12078746D01*
X18363039Y-12078746D02*
X18372563Y-12059698D01*
X18372563Y-12059698D02*
X18382087Y-12050174D01*
X18382087Y-12050174D02*
X18401134Y-12040650D01*
X18401134Y-12040650D02*
X18429706Y-12040650D01*
X18429706Y-12040650D02*
X18448753Y-12050174D01*
X18448753Y-12050174D02*
X18458277Y-12059698D01*
X18458277Y-12059698D02*
X18467801Y-12078746D01*
X18467801Y-12078746D02*
X18467801Y-12135888D01*
X18467801Y-12135888D02*
X18458277Y-12154936D01*
X18458277Y-12154936D02*
X18448753Y-12164460D01*
X18448753Y-12164460D02*
X18429706Y-12173984D01*
X18429706Y-12173984D02*
X18401134Y-12173984D01*
X18582087Y-12173984D02*
X18563039Y-12164460D01*
X18563039Y-12164460D02*
X18553515Y-12145412D01*
X18553515Y-12145412D02*
X18553515Y-11973984D01*
X18734468Y-12164460D02*
X18715420Y-12173984D01*
X18715420Y-12173984D02*
X18677325Y-12173984D01*
X18677325Y-12173984D02*
X18658277Y-12164460D01*
X18658277Y-12164460D02*
X18648753Y-12145412D01*
X18648753Y-12145412D02*
X18648753Y-12069222D01*
X18648753Y-12069222D02*
X18658277Y-12050174D01*
X18658277Y-12050174D02*
X18677325Y-12040650D01*
X18677325Y-12040650D02*
X18715420Y-12040650D01*
X18715420Y-12040650D02*
X18734468Y-12050174D01*
X18734468Y-12050174D02*
X18743992Y-12069222D01*
X18743992Y-12069222D02*
X18743992Y-12088269D01*
X18743992Y-12088269D02*
X18648753Y-12107317D01*
X18810658Y-12250174D02*
X18820182Y-12240650D01*
X18820182Y-12240650D02*
X18839230Y-12212079D01*
X18839230Y-12212079D02*
X18848753Y-12193031D01*
X18848753Y-12193031D02*
X18858277Y-12164460D01*
X18858277Y-12164460D02*
X18867801Y-12116841D01*
X18867801Y-12116841D02*
X18867801Y-12078746D01*
X18867801Y-12078746D02*
X18858277Y-12031127D01*
X18858277Y-12031127D02*
X18848753Y-12002555D01*
X18848753Y-12002555D02*
X18839230Y-11983508D01*
X18839230Y-11983508D02*
X18820182Y-11954936D01*
X18820182Y-11954936D02*
X18810658Y-11945412D01*
D12*
X14197500Y-12346500D02*
G75*
G02*
X14097500Y-12346500I-50000J0D01*
G01*
X14097500Y-12346500D02*
G75*
G02*
X14197500Y-12346500I50000J0D01*
G01*
D11*
X14563039Y-12437984D02*
X14448753Y-12437984D01*
X14505896Y-12437984D02*
X14505896Y-12237984D01*
X14505896Y-12237984D02*
X14486848Y-12266555D01*
X14486848Y-12266555D02*
X14467801Y-12285603D01*
X14467801Y-12285603D02*
X14448753Y-12295127D01*
X14648753Y-12418936D02*
X14658277Y-12428460D01*
X14658277Y-12428460D02*
X14648753Y-12437984D01*
X14648753Y-12437984D02*
X14639229Y-12428460D01*
X14639229Y-12428460D02*
X14648753Y-12418936D01*
X14648753Y-12418936D02*
X14648753Y-12437984D01*
X14782086Y-12237984D02*
X14801134Y-12237984D01*
X14801134Y-12237984D02*
X14820182Y-12247508D01*
X14820182Y-12247508D02*
X14829705Y-12257031D01*
X14829705Y-12257031D02*
X14839229Y-12276079D01*
X14839229Y-12276079D02*
X14848753Y-12314174D01*
X14848753Y-12314174D02*
X14848753Y-12361793D01*
X14848753Y-12361793D02*
X14839229Y-12399888D01*
X14839229Y-12399888D02*
X14829705Y-12418936D01*
X14829705Y-12418936D02*
X14820182Y-12428460D01*
X14820182Y-12428460D02*
X14801134Y-12437984D01*
X14801134Y-12437984D02*
X14782086Y-12437984D01*
X14782086Y-12437984D02*
X14763039Y-12428460D01*
X14763039Y-12428460D02*
X14753515Y-12418936D01*
X14753515Y-12418936D02*
X14743991Y-12399888D01*
X14743991Y-12399888D02*
X14734467Y-12361793D01*
X14734467Y-12361793D02*
X14734467Y-12314174D01*
X14734467Y-12314174D02*
X14743991Y-12276079D01*
X14743991Y-12276079D02*
X14753515Y-12257031D01*
X14753515Y-12257031D02*
X14763039Y-12247508D01*
X14763039Y-12247508D02*
X14782086Y-12237984D01*
X14972562Y-12237984D02*
X14991610Y-12237984D01*
X14991610Y-12237984D02*
X15010658Y-12247508D01*
X15010658Y-12247508D02*
X15020182Y-12257031D01*
X15020182Y-12257031D02*
X15029705Y-12276079D01*
X15029705Y-12276079D02*
X15039229Y-12314174D01*
X15039229Y-12314174D02*
X15039229Y-12361793D01*
X15039229Y-12361793D02*
X15029705Y-12399888D01*
X15029705Y-12399888D02*
X15020182Y-12418936D01*
X15020182Y-12418936D02*
X15010658Y-12428460D01*
X15010658Y-12428460D02*
X14991610Y-12437984D01*
X14991610Y-12437984D02*
X14972562Y-12437984D01*
X14972562Y-12437984D02*
X14953515Y-12428460D01*
X14953515Y-12428460D02*
X14943991Y-12418936D01*
X14943991Y-12418936D02*
X14934467Y-12399888D01*
X14934467Y-12399888D02*
X14924943Y-12361793D01*
X14924943Y-12361793D02*
X14924943Y-12314174D01*
X14924943Y-12314174D02*
X14934467Y-12276079D01*
X14934467Y-12276079D02*
X14943991Y-12257031D01*
X14943991Y-12257031D02*
X14953515Y-12247508D01*
X14953515Y-12247508D02*
X14972562Y-12237984D01*
X15163039Y-12237984D02*
X15182086Y-12237984D01*
X15182086Y-12237984D02*
X15201134Y-12247508D01*
X15201134Y-12247508D02*
X15210658Y-12257031D01*
X15210658Y-12257031D02*
X15220182Y-12276079D01*
X15220182Y-12276079D02*
X15229705Y-12314174D01*
X15229705Y-12314174D02*
X15229705Y-12361793D01*
X15229705Y-12361793D02*
X15220182Y-12399888D01*
X15220182Y-12399888D02*
X15210658Y-12418936D01*
X15210658Y-12418936D02*
X15201134Y-12428460D01*
X15201134Y-12428460D02*
X15182086Y-12437984D01*
X15182086Y-12437984D02*
X15163039Y-12437984D01*
X15163039Y-12437984D02*
X15143991Y-12428460D01*
X15143991Y-12428460D02*
X15134467Y-12418936D01*
X15134467Y-12418936D02*
X15124943Y-12399888D01*
X15124943Y-12399888D02*
X15115420Y-12361793D01*
X15115420Y-12361793D02*
X15115420Y-12314174D01*
X15115420Y-12314174D02*
X15124943Y-12276079D01*
X15124943Y-12276079D02*
X15134467Y-12257031D01*
X15134467Y-12257031D02*
X15143991Y-12247508D01*
X15143991Y-12247508D02*
X15163039Y-12237984D01*
X15315420Y-12437984D02*
X15315420Y-12304650D01*
X15315420Y-12323698D02*
X15324943Y-12314174D01*
X15324943Y-12314174D02*
X15343991Y-12304650D01*
X15343991Y-12304650D02*
X15372563Y-12304650D01*
X15372563Y-12304650D02*
X15391610Y-12314174D01*
X15391610Y-12314174D02*
X15401134Y-12333222D01*
X15401134Y-12333222D02*
X15401134Y-12437984D01*
X15401134Y-12333222D02*
X15410658Y-12314174D01*
X15410658Y-12314174D02*
X15429705Y-12304650D01*
X15429705Y-12304650D02*
X15458277Y-12304650D01*
X15458277Y-12304650D02*
X15477324Y-12314174D01*
X15477324Y-12314174D02*
X15486848Y-12333222D01*
X15486848Y-12333222D02*
X15486848Y-12437984D01*
X15582086Y-12437984D02*
X15582086Y-12304650D01*
X15582086Y-12323698D02*
X15591610Y-12314174D01*
X15591610Y-12314174D02*
X15610658Y-12304650D01*
X15610658Y-12304650D02*
X15639229Y-12304650D01*
X15639229Y-12304650D02*
X15658277Y-12314174D01*
X15658277Y-12314174D02*
X15667801Y-12333222D01*
X15667801Y-12333222D02*
X15667801Y-12437984D01*
X15667801Y-12333222D02*
X15677324Y-12314174D01*
X15677324Y-12314174D02*
X15696372Y-12304650D01*
X15696372Y-12304650D02*
X15724943Y-12304650D01*
X15724943Y-12304650D02*
X15743991Y-12314174D01*
X15743991Y-12314174D02*
X15753515Y-12333222D01*
X15753515Y-12333222D02*
X15753515Y-12437984D01*
X16143991Y-12228460D02*
X15972563Y-12485603D01*
X16401134Y-12237984D02*
X16420182Y-12237984D01*
X16420182Y-12237984D02*
X16439229Y-12247508D01*
X16439229Y-12247508D02*
X16448753Y-12257031D01*
X16448753Y-12257031D02*
X16458277Y-12276079D01*
X16458277Y-12276079D02*
X16467801Y-12314174D01*
X16467801Y-12314174D02*
X16467801Y-12361793D01*
X16467801Y-12361793D02*
X16458277Y-12399888D01*
X16458277Y-12399888D02*
X16448753Y-12418936D01*
X16448753Y-12418936D02*
X16439229Y-12428460D01*
X16439229Y-12428460D02*
X16420182Y-12437984D01*
X16420182Y-12437984D02*
X16401134Y-12437984D01*
X16401134Y-12437984D02*
X16382086Y-12428460D01*
X16382086Y-12428460D02*
X16372563Y-12418936D01*
X16372563Y-12418936D02*
X16363039Y-12399888D01*
X16363039Y-12399888D02*
X16353515Y-12361793D01*
X16353515Y-12361793D02*
X16353515Y-12314174D01*
X16353515Y-12314174D02*
X16363039Y-12276079D01*
X16363039Y-12276079D02*
X16372563Y-12257031D01*
X16372563Y-12257031D02*
X16382086Y-12247508D01*
X16382086Y-12247508D02*
X16401134Y-12237984D01*
X16553515Y-12418936D02*
X16563039Y-12428460D01*
X16563039Y-12428460D02*
X16553515Y-12437984D01*
X16553515Y-12437984D02*
X16543991Y-12428460D01*
X16543991Y-12428460D02*
X16553515Y-12418936D01*
X16553515Y-12418936D02*
X16553515Y-12437984D01*
X16686848Y-12237984D02*
X16705896Y-12237984D01*
X16705896Y-12237984D02*
X16724944Y-12247508D01*
X16724944Y-12247508D02*
X16734467Y-12257031D01*
X16734467Y-12257031D02*
X16743991Y-12276079D01*
X16743991Y-12276079D02*
X16753515Y-12314174D01*
X16753515Y-12314174D02*
X16753515Y-12361793D01*
X16753515Y-12361793D02*
X16743991Y-12399888D01*
X16743991Y-12399888D02*
X16734467Y-12418936D01*
X16734467Y-12418936D02*
X16724944Y-12428460D01*
X16724944Y-12428460D02*
X16705896Y-12437984D01*
X16705896Y-12437984D02*
X16686848Y-12437984D01*
X16686848Y-12437984D02*
X16667801Y-12428460D01*
X16667801Y-12428460D02*
X16658277Y-12418936D01*
X16658277Y-12418936D02*
X16648753Y-12399888D01*
X16648753Y-12399888D02*
X16639229Y-12361793D01*
X16639229Y-12361793D02*
X16639229Y-12314174D01*
X16639229Y-12314174D02*
X16648753Y-12276079D01*
X16648753Y-12276079D02*
X16658277Y-12257031D01*
X16658277Y-12257031D02*
X16667801Y-12247508D01*
X16667801Y-12247508D02*
X16686848Y-12237984D01*
X16820182Y-12237984D02*
X16943991Y-12237984D01*
X16943991Y-12237984D02*
X16877325Y-12314174D01*
X16877325Y-12314174D02*
X16905896Y-12314174D01*
X16905896Y-12314174D02*
X16924944Y-12323698D01*
X16924944Y-12323698D02*
X16934468Y-12333222D01*
X16934468Y-12333222D02*
X16943991Y-12352269D01*
X16943991Y-12352269D02*
X16943991Y-12399888D01*
X16943991Y-12399888D02*
X16934468Y-12418936D01*
X16934468Y-12418936D02*
X16924944Y-12428460D01*
X16924944Y-12428460D02*
X16905896Y-12437984D01*
X16905896Y-12437984D02*
X16848753Y-12437984D01*
X16848753Y-12437984D02*
X16829706Y-12428460D01*
X16829706Y-12428460D02*
X16820182Y-12418936D01*
X17039229Y-12437984D02*
X17077325Y-12437984D01*
X17077325Y-12437984D02*
X17096372Y-12428460D01*
X17096372Y-12428460D02*
X17105896Y-12418936D01*
X17105896Y-12418936D02*
X17124944Y-12390365D01*
X17124944Y-12390365D02*
X17134468Y-12352269D01*
X17134468Y-12352269D02*
X17134468Y-12276079D01*
X17134468Y-12276079D02*
X17124944Y-12257031D01*
X17124944Y-12257031D02*
X17115420Y-12247508D01*
X17115420Y-12247508D02*
X17096372Y-12237984D01*
X17096372Y-12237984D02*
X17058277Y-12237984D01*
X17058277Y-12237984D02*
X17039229Y-12247508D01*
X17039229Y-12247508D02*
X17029706Y-12257031D01*
X17029706Y-12257031D02*
X17020182Y-12276079D01*
X17020182Y-12276079D02*
X17020182Y-12323698D01*
X17020182Y-12323698D02*
X17029706Y-12342746D01*
X17029706Y-12342746D02*
X17039229Y-12352269D01*
X17039229Y-12352269D02*
X17058277Y-12361793D01*
X17058277Y-12361793D02*
X17096372Y-12361793D01*
X17096372Y-12361793D02*
X17115420Y-12352269D01*
X17115420Y-12352269D02*
X17124944Y-12342746D01*
X17124944Y-12342746D02*
X17134468Y-12323698D01*
X17305896Y-12304650D02*
X17305896Y-12437984D01*
X17258277Y-12228460D02*
X17210658Y-12371317D01*
X17210658Y-12371317D02*
X17334468Y-12371317D01*
X17401134Y-12237984D02*
X17401134Y-12276079D01*
X17477325Y-12237984D02*
X17477325Y-12276079D01*
X17772563Y-12514174D02*
X17763039Y-12504650D01*
X17763039Y-12504650D02*
X17743991Y-12476079D01*
X17743991Y-12476079D02*
X17734468Y-12457031D01*
X17734468Y-12457031D02*
X17724944Y-12428460D01*
X17724944Y-12428460D02*
X17715420Y-12380841D01*
X17715420Y-12380841D02*
X17715420Y-12342746D01*
X17715420Y-12342746D02*
X17724944Y-12295127D01*
X17724944Y-12295127D02*
X17734468Y-12266555D01*
X17734468Y-12266555D02*
X17743991Y-12247508D01*
X17743991Y-12247508D02*
X17763039Y-12218936D01*
X17763039Y-12218936D02*
X17772563Y-12209412D01*
X17934468Y-12304650D02*
X17934468Y-12437984D01*
X17886849Y-12228460D02*
X17839230Y-12371317D01*
X17839230Y-12371317D02*
X17963039Y-12371317D01*
X18191611Y-12437984D02*
X18191611Y-12237984D01*
X18277325Y-12437984D02*
X18277325Y-12333222D01*
X18277325Y-12333222D02*
X18267801Y-12314174D01*
X18267801Y-12314174D02*
X18248753Y-12304650D01*
X18248753Y-12304650D02*
X18220182Y-12304650D01*
X18220182Y-12304650D02*
X18201134Y-12314174D01*
X18201134Y-12314174D02*
X18191611Y-12323698D01*
X18401134Y-12437984D02*
X18382087Y-12428460D01*
X18382087Y-12428460D02*
X18372563Y-12418936D01*
X18372563Y-12418936D02*
X18363039Y-12399888D01*
X18363039Y-12399888D02*
X18363039Y-12342746D01*
X18363039Y-12342746D02*
X18372563Y-12323698D01*
X18372563Y-12323698D02*
X18382087Y-12314174D01*
X18382087Y-12314174D02*
X18401134Y-12304650D01*
X18401134Y-12304650D02*
X18429706Y-12304650D01*
X18429706Y-12304650D02*
X18448753Y-12314174D01*
X18448753Y-12314174D02*
X18458277Y-12323698D01*
X18458277Y-12323698D02*
X18467801Y-12342746D01*
X18467801Y-12342746D02*
X18467801Y-12399888D01*
X18467801Y-12399888D02*
X18458277Y-12418936D01*
X18458277Y-12418936D02*
X18448753Y-12428460D01*
X18448753Y-12428460D02*
X18429706Y-12437984D01*
X18429706Y-12437984D02*
X18401134Y-12437984D01*
X18582087Y-12437984D02*
X18563039Y-12428460D01*
X18563039Y-12428460D02*
X18553515Y-12409412D01*
X18553515Y-12409412D02*
X18553515Y-12237984D01*
X18734468Y-12428460D02*
X18715420Y-12437984D01*
X18715420Y-12437984D02*
X18677325Y-12437984D01*
X18677325Y-12437984D02*
X18658277Y-12428460D01*
X18658277Y-12428460D02*
X18648753Y-12409412D01*
X18648753Y-12409412D02*
X18648753Y-12333222D01*
X18648753Y-12333222D02*
X18658277Y-12314174D01*
X18658277Y-12314174D02*
X18677325Y-12304650D01*
X18677325Y-12304650D02*
X18715420Y-12304650D01*
X18715420Y-12304650D02*
X18734468Y-12314174D01*
X18734468Y-12314174D02*
X18743992Y-12333222D01*
X18743992Y-12333222D02*
X18743992Y-12352269D01*
X18743992Y-12352269D02*
X18648753Y-12371317D01*
X18820182Y-12428460D02*
X18839230Y-12437984D01*
X18839230Y-12437984D02*
X18877325Y-12437984D01*
X18877325Y-12437984D02*
X18896373Y-12428460D01*
X18896373Y-12428460D02*
X18905896Y-12409412D01*
X18905896Y-12409412D02*
X18905896Y-12399888D01*
X18905896Y-12399888D02*
X18896373Y-12380841D01*
X18896373Y-12380841D02*
X18877325Y-12371317D01*
X18877325Y-12371317D02*
X18848753Y-12371317D01*
X18848753Y-12371317D02*
X18829706Y-12361793D01*
X18829706Y-12361793D02*
X18820182Y-12342746D01*
X18820182Y-12342746D02*
X18820182Y-12333222D01*
X18820182Y-12333222D02*
X18829706Y-12314174D01*
X18829706Y-12314174D02*
X18848753Y-12304650D01*
X18848753Y-12304650D02*
X18877325Y-12304650D01*
X18877325Y-12304650D02*
X18896373Y-12314174D01*
X18972563Y-12514174D02*
X18982087Y-12504650D01*
X18982087Y-12504650D02*
X19001134Y-12476079D01*
X19001134Y-12476079D02*
X19010658Y-12457031D01*
X19010658Y-12457031D02*
X19020182Y-12428460D01*
X19020182Y-12428460D02*
X19029706Y-12380841D01*
X19029706Y-12380841D02*
X19029706Y-12342746D01*
X19029706Y-12342746D02*
X19020182Y-12295127D01*
X19020182Y-12295127D02*
X19010658Y-12266555D01*
X19010658Y-12266555D02*
X19001134Y-12247508D01*
X19001134Y-12247508D02*
X18982087Y-12218936D01*
X18982087Y-12218936D02*
X18972563Y-12209412D01*
M02*
