%TF.GenerationSoftware,KiCad,Pcbnew,9.0.3*%
%TF.CreationDate,2025-11-11T20:03:35+05:30*%
%TF.ProjectId,mixed sig pcb(using microcontroller),6d697865-6420-4736-9967-207063622875,rev?*%
%TF.SameCoordinates,Original*%
%TF.FileFunction,Copper,L1,Top*%
%TF.FilePolarity,Positive*%
%FSLAX46Y46*%
G04 Gerber Fmt 4.6, Leading zero omitted, Abs format (unit mm)*
G04 Created by KiCad (PCBNEW 9.0.3) date 2025-11-11 20:03:35*
%MOMM*%
%LPD*%
G01*
G04 APERTURE LIST*
G04 Aperture macros list*
%AMRoundRect*
0 Rectangle with rounded corners*
0 $1 Rounding radius*
0 $2 $3 $4 $5 $6 $7 $8 $9 X,Y pos of 4 corners*
0 Add a 4 corners polygon primitive as box body*
4,1,4,$2,$3,$4,$5,$6,$7,$8,$9,$2,$3,0*
0 Add four circle primitives for the rounded corners*
1,1,$1+$1,$2,$3*
1,1,$1+$1,$4,$5*
1,1,$1+$1,$6,$7*
1,1,$1+$1,$8,$9*
0 Add four rect primitives between the rounded corners*
20,1,$1+$1,$2,$3,$4,$5,0*
20,1,$1+$1,$4,$5,$6,$7,0*
20,1,$1+$1,$6,$7,$8,$9,0*
20,1,$1+$1,$8,$9,$2,$3,0*%
G04 Aperture macros list end*
%TA.AperFunction,ComponentPad*%
%ADD10R,1.700000X1.700000*%
%TD*%
%TA.AperFunction,ComponentPad*%
%ADD11C,1.700000*%
%TD*%
%TA.AperFunction,SMDPad,CuDef*%
%ADD12RoundRect,0.200000X0.200000X0.275000X-0.200000X0.275000X-0.200000X-0.275000X0.200000X-0.275000X0*%
%TD*%
%TA.AperFunction,SMDPad,CuDef*%
%ADD13RoundRect,0.200000X-0.200000X-0.275000X0.200000X-0.275000X0.200000X0.275000X-0.200000X0.275000X0*%
%TD*%
%TA.AperFunction,SMDPad,CuDef*%
%ADD14RoundRect,0.137500X-0.600000X-0.137500X0.600000X-0.137500X0.600000X0.137500X-0.600000X0.137500X0*%
%TD*%
%TA.AperFunction,SMDPad,CuDef*%
%ADD15RoundRect,0.137500X-0.137500X-0.600000X0.137500X-0.600000X0.137500X0.600000X-0.137500X0.600000X0*%
%TD*%
%TA.AperFunction,SMDPad,CuDef*%
%ADD16RoundRect,0.218750X-0.218750X-0.256250X0.218750X-0.256250X0.218750X0.256250X-0.218750X0.256250X0*%
%TD*%
%TA.AperFunction,SMDPad,CuDef*%
%ADD17RoundRect,0.150000X-0.825000X-0.150000X0.825000X-0.150000X0.825000X0.150000X-0.825000X0.150000X0*%
%TD*%
%TA.AperFunction,SMDPad,CuDef*%
%ADD18RoundRect,0.225000X-0.225000X-0.250000X0.225000X-0.250000X0.225000X0.250000X-0.225000X0.250000X0*%
%TD*%
%TA.AperFunction,ViaPad*%
%ADD19C,0.600000*%
%TD*%
%TA.AperFunction,Conductor*%
%ADD20C,0.200000*%
%TD*%
G04 APERTURE END LIST*
D10*
%TO.P,J2,1,Pin_1*%
%TO.N,GNDA*%
X172000000Y-95075000D03*
D11*
%TO.P,J2,2,Pin_2*%
%TO.N,Net-(J2-Pin_2)*%
X172000000Y-92535000D03*
%TD*%
D12*
%TO.P,R1,1*%
%TO.N,Net-(U1-PC6{slash}~{RESET})*%
X151600000Y-85800000D03*
%TO.P,R1,2*%
%TO.N,5VD*%
X149950000Y-85800000D03*
%TD*%
D10*
%TO.P,J1,1,Pin_1*%
%TO.N,5VD*%
X148400000Y-94325000D03*
D11*
%TO.P,J1,2,Pin_2*%
%TO.N,GNDD*%
X148400000Y-96865000D03*
%TD*%
D13*
%TO.P,R3,1*%
%TO.N,5VA*%
X163950000Y-99000000D03*
%TO.P,R3,2*%
%TO.N,Net-(U2-+)*%
X165600000Y-99000000D03*
%TD*%
%TO.P,R2,1*%
%TO.N,Net-(U2-+)*%
X168550000Y-99000000D03*
%TO.P,R2,2*%
%TO.N,GNDA*%
X170200000Y-99000000D03*
%TD*%
D14*
%TO.P,U1,1,PD3*%
%TO.N,unconnected-(U1-PD3-Pad1)*%
X152837500Y-91600000D03*
%TO.P,U1,2,PD4*%
%TO.N,unconnected-(U1-PD4-Pad2)*%
X152837500Y-92400000D03*
%TO.P,U1,3,GND*%
%TO.N,GNDD*%
X152837500Y-93200000D03*
%TO.P,U1,4,VCC*%
%TO.N,5VD*%
X152837500Y-94000000D03*
%TO.P,U1,5,GND*%
%TO.N,GNDD*%
X152837500Y-94800000D03*
%TO.P,U1,6,VCC*%
%TO.N,5VD*%
X152837500Y-95600000D03*
%TO.P,U1,7,PB6/XTAL1*%
%TO.N,unconnected-(U1-PB6{slash}XTAL1-Pad7)*%
X152837500Y-96400000D03*
%TO.P,U1,8,PB7/XTAL2*%
%TO.N,unconnected-(U1-PB7{slash}XTAL2-Pad8)*%
X152837500Y-97200000D03*
D15*
%TO.P,U1,9,PD5*%
%TO.N,unconnected-(U1-PD5-Pad9)*%
X154200000Y-98562500D03*
%TO.P,U1,10,PD6*%
%TO.N,unconnected-(U1-PD6-Pad10)*%
X155000000Y-98562500D03*
%TO.P,U1,11,PD7*%
%TO.N,unconnected-(U1-PD7-Pad11)*%
X155800000Y-98562500D03*
%TO.P,U1,12,PB0*%
%TO.N,unconnected-(U1-PB0-Pad12)*%
X156600000Y-98562500D03*
%TO.P,U1,13,PB1*%
%TO.N,unconnected-(U1-PB1-Pad13)*%
X157400000Y-98562500D03*
%TO.P,U1,14,PB2*%
%TO.N,unconnected-(U1-PB2-Pad14)*%
X158200000Y-98562500D03*
%TO.P,U1,15,PB3*%
%TO.N,unconnected-(U1-PB3-Pad15)*%
X159000000Y-98562500D03*
%TO.P,U1,16,PB4*%
%TO.N,unconnected-(U1-PB4-Pad16)*%
X159800000Y-98562500D03*
D14*
%TO.P,U1,17,PB5*%
%TO.N,unconnected-(U1-PB5-Pad17)*%
X161162500Y-97200000D03*
%TO.P,U1,18,AVCC*%
%TO.N,5VA*%
X161162500Y-96400000D03*
%TO.P,U1,19,ADC6*%
%TO.N,unconnected-(U1-ADC6-Pad19)*%
X161162500Y-95600000D03*
%TO.P,U1,20,AREF*%
%TO.N,5VA*%
X161162500Y-94800000D03*
%TO.P,U1,21,AGND*%
%TO.N,GNDA*%
X161162500Y-94000000D03*
%TO.P,U1,22,ADC7*%
%TO.N,unconnected-(U1-ADC7-Pad22)*%
X161162500Y-93200000D03*
%TO.P,U1,23,PC0*%
%TO.N,Net-(U1-PC0)*%
X161162500Y-92400000D03*
%TO.P,U1,24,PC1*%
%TO.N,unconnected-(U1-PC1-Pad24)*%
X161162500Y-91600000D03*
D15*
%TO.P,U1,25,PC2*%
%TO.N,unconnected-(U1-PC2-Pad25)*%
X159800000Y-90237500D03*
%TO.P,U1,26,PC3*%
%TO.N,unconnected-(U1-PC3-Pad26)*%
X159000000Y-90237500D03*
%TO.P,U1,27,PC4*%
%TO.N,unconnected-(U1-PC4-Pad27)*%
X158200000Y-90237500D03*
%TO.P,U1,28,PC5*%
%TO.N,unconnected-(U1-PC5-Pad28)*%
X157400000Y-90237500D03*
%TO.P,U1,29,PC6/~{RESET}*%
%TO.N,Net-(U1-PC6{slash}~{RESET})*%
X156600000Y-90237500D03*
%TO.P,U1,30,PD0*%
%TO.N,unconnected-(U1-PD0-Pad30)*%
X155800000Y-90237500D03*
%TO.P,U1,31,PD1*%
%TO.N,unconnected-(U1-PD1-Pad31)*%
X155000000Y-90237500D03*
%TO.P,U1,32,PD2*%
%TO.N,unconnected-(U1-PD2-Pad32)*%
X154200000Y-90237500D03*
%TD*%
D13*
%TO.P,R4,1*%
%TO.N,Net-(U2--)*%
X167400000Y-92800000D03*
%TO.P,R4,2*%
%TO.N,Net-(J2-Pin_2)*%
X169050000Y-92800000D03*
%TD*%
D16*
%TO.P,FB1,1*%
%TO.N,5VD*%
X155625000Y-104200000D03*
%TO.P,FB1,2*%
%TO.N,5VA*%
X157200000Y-104200000D03*
%TD*%
D12*
%TO.P,R6,1*%
%TO.N,GNDA*%
X162250000Y-109400000D03*
%TO.P,R6,2*%
%TO.N,GNDD*%
X160600000Y-109400000D03*
%TD*%
D17*
%TO.P,U2,1,+*%
%TO.N,Net-(U2-+)*%
X167050000Y-103790000D03*
%TO.P,U2,2,-*%
%TO.N,Net-(U2--)*%
X167050000Y-105060000D03*
%TO.P,U2,3,V+*%
%TO.N,GND*%
X167050000Y-106330000D03*
%TO.P,U2,4,V-*%
%TO.N,5VA*%
X167050000Y-107600000D03*
%TO.P,U2,5*%
%TO.N,Net-(U1-PC0)*%
X172000000Y-107600000D03*
%TO.P,U2,6*%
%TO.N,N/C*%
X172000000Y-106330000D03*
%TO.P,U2,7*%
X172000000Y-105060000D03*
%TO.P,U2,8*%
X172000000Y-103790000D03*
%TD*%
D13*
%TO.P,R5,1*%
%TO.N,Net-(U1-PC0)*%
X163550000Y-92800000D03*
%TO.P,R5,2*%
%TO.N,Net-(U2--)*%
X165200000Y-92800000D03*
%TD*%
D18*
%TO.P,C1,1*%
%TO.N,5VA*%
X161650000Y-104200000D03*
%TO.P,C1,2*%
%TO.N,GNDA*%
X163200000Y-104200000D03*
%TD*%
D19*
%TO.N,GNDD*%
X160600000Y-109400000D03*
%TD*%
D20*
%TO.N,5VD*%
X149950000Y-85800000D02*
X149950000Y-92000000D01*
X152100001Y-94000000D02*
X152837500Y-94000000D01*
X151799000Y-99599944D02*
X153876000Y-97522944D01*
X153398944Y-95600000D02*
X152837500Y-95600000D01*
X151950000Y-94000000D02*
X149950000Y-92000000D01*
X151799000Y-100374000D02*
X151799000Y-99599944D01*
X153622944Y-91024000D02*
X152052056Y-91024000D01*
X154277000Y-91678056D02*
X153622944Y-91024000D01*
X152837500Y-95600000D02*
X153574999Y-95600000D01*
X149950000Y-92000000D02*
X149950000Y-92775000D01*
X153876000Y-97522944D02*
X153876000Y-96077056D01*
X149950000Y-92775000D02*
X148400000Y-94325000D01*
X151799000Y-93698999D02*
X152100001Y-94000000D01*
X155625000Y-104200000D02*
X151799000Y-100374000D01*
X148400000Y-94325000D02*
X148725000Y-94000000D01*
X152837500Y-94000000D02*
X151950000Y-94000000D01*
X152052056Y-91024000D02*
X151799000Y-91277056D01*
X154277000Y-94897999D02*
X154277000Y-91678056D01*
X151799000Y-91277056D02*
X151799000Y-93698999D01*
X153574999Y-95600000D02*
X154277000Y-94897999D01*
X153876000Y-96077056D02*
X153398944Y-95600000D01*
%TO.N,Net-(U1-PC6{slash}~{RESET})*%
X152899999Y-85800000D02*
X156600000Y-89500001D01*
X151600000Y-85800000D02*
X152899999Y-85800000D01*
X156600000Y-89500001D02*
X156600000Y-90237500D01*
%TO.N,GNDA*%
X167434068Y-109400000D02*
X168727000Y-108107068D01*
X172000000Y-97200000D02*
X170200000Y-99000000D01*
X162250000Y-109400000D02*
X167434068Y-109400000D01*
X165000000Y-104200000D02*
X170200000Y-99000000D01*
X170200000Y-99000000D02*
X165200000Y-94000000D01*
X164211000Y-103189000D02*
X163200000Y-104200000D01*
X168727000Y-103850032D02*
X168065968Y-103189000D01*
X168065968Y-103189000D02*
X164211000Y-103189000D01*
X172000000Y-95075000D02*
X172000000Y-97200000D01*
X165200000Y-94000000D02*
X161162500Y-94000000D01*
X168727000Y-108107068D02*
X168727000Y-103850032D01*
X163200000Y-104200000D02*
X165000000Y-104200000D01*
%TO.N,Net-(U2-+)*%
X168550000Y-99000000D02*
X165600000Y-99000000D01*
X165600000Y-99000000D02*
X162401000Y-102199000D01*
X162401000Y-104626110D02*
X162750890Y-104976000D01*
X164889001Y-104976000D02*
X166075001Y-103790000D01*
X162750890Y-104976000D02*
X164889001Y-104976000D01*
X166075001Y-103790000D02*
X167050000Y-103790000D01*
X162401000Y-102199000D02*
X162401000Y-104626110D01*
%TO.N,5VA*%
X161650000Y-104200000D02*
X161650000Y-101300000D01*
X161899999Y-96400000D02*
X161162500Y-96400000D01*
X160124000Y-95277056D02*
X160601056Y-94800000D01*
X161650000Y-101300000D02*
X163950000Y-99000000D01*
X160601056Y-96400000D02*
X160124000Y-95922944D01*
X161162500Y-96400000D02*
X160601056Y-96400000D01*
X164575000Y-107600000D02*
X161650000Y-104675000D01*
X163950000Y-99000000D02*
X163950000Y-98450001D01*
X161650000Y-104675000D02*
X161650000Y-104200000D01*
X167050000Y-107600000D02*
X164575000Y-107600000D01*
X160601056Y-94800000D02*
X161162500Y-94800000D01*
X157200000Y-104200000D02*
X161650000Y-104200000D01*
X160124000Y-95922944D02*
X160124000Y-95277056D01*
X163950000Y-98450001D02*
X161899999Y-96400000D01*
%TO.N,Net-(U2--)*%
X160377056Y-91024000D02*
X165624000Y-91024000D01*
X159723000Y-97121944D02*
X159723000Y-91678056D01*
X160377056Y-97776000D02*
X159723000Y-97121944D01*
X160377056Y-99346888D02*
X160377056Y-97776000D01*
X159984900Y-108201000D02*
X156461500Y-104677600D01*
X167050000Y-105060000D02*
X168024999Y-105060000D01*
X159723000Y-91678056D02*
X160377056Y-91024000D01*
X156461500Y-103262444D02*
X160377056Y-99346888D01*
X168024999Y-105060000D02*
X168326000Y-105361001D01*
X165624000Y-91024000D02*
X167400000Y-92800000D01*
X168326000Y-105361001D02*
X168326000Y-107940968D01*
X165200000Y-92800000D02*
X167400000Y-92800000D01*
X168326000Y-107940968D02*
X168065968Y-108201000D01*
X168065968Y-108201000D02*
X159984900Y-108201000D01*
X156461500Y-104677600D02*
X156461500Y-103262444D01*
%TO.N,Net-(J2-Pin_2)*%
X171735000Y-92800000D02*
X172000000Y-92535000D01*
X169050000Y-92800000D02*
X171735000Y-92800000D01*
%TO.N,Net-(U1-PC0)*%
X173276000Y-106670968D02*
X172346968Y-107600000D01*
X163550000Y-92800000D02*
X164349000Y-93599000D01*
X163150000Y-92400000D02*
X163550000Y-92800000D01*
X173276000Y-94049000D02*
X173276000Y-106670968D01*
X170524000Y-93599000D02*
X170849000Y-93924000D01*
X170849000Y-93924000D02*
X173151000Y-93924000D01*
X173151000Y-93924000D02*
X173276000Y-94049000D01*
X161162500Y-92400000D02*
X163150000Y-92400000D01*
X164349000Y-93599000D02*
X170524000Y-93599000D01*
X172346968Y-107600000D02*
X172000000Y-107600000D01*
%TO.N,GNDD*%
X158600000Y-109400000D02*
X160600000Y-109400000D01*
X153876000Y-93677056D02*
X153876000Y-94498999D01*
X153398944Y-93200000D02*
X153876000Y-93677056D01*
X150465000Y-94800000D02*
X152837500Y-94800000D01*
X148400000Y-96865000D02*
X150465000Y-94800000D01*
X153574999Y-94800000D02*
X152837500Y-94800000D01*
X158600000Y-109400000D02*
X158200000Y-109800000D01*
X153876000Y-94498999D02*
X153574999Y-94800000D01*
X152837500Y-93200000D02*
X153398944Y-93200000D01*
%TD*%
M02*
