%TF.GenerationSoftware,KiCad,Pcbnew,9.0.3*%
%TF.CreationDate,2025-11-11T20:03:35+05:30*%
%TF.ProjectId,mixed sig pcb(using microcontroller),6d697865-6420-4736-9967-207063622875,rev?*%
%TF.SameCoordinates,Original*%
%TF.FileFunction,Paste,Top*%
%TF.FilePolarity,Positive*%
%FSLAX46Y46*%
G04 Gerber Fmt 4.6, Leading zero omitted, Abs format (unit mm)*
G04 Created by KiCad (PCBNEW 9.0.3) date 2025-11-11 20:03:35*
%MOMM*%
%LPD*%
G01*
G04 APERTURE LIST*
G04 Aperture macros list*
%AMRoundRect*
0 Rectangle with rounded corners*
0 $1 Rounding radius*
0 $2 $3 $4 $5 $6 $7 $8 $9 X,Y pos of 4 corners*
0 Add a 4 corners polygon primitive as box body*
4,1,4,$2,$3,$4,$5,$6,$7,$8,$9,$2,$3,0*
0 Add four circle primitives for the rounded corners*
1,1,$1+$1,$2,$3*
1,1,$1+$1,$4,$5*
1,1,$1+$1,$6,$7*
1,1,$1+$1,$8,$9*
0 Add four rect primitives between the rounded corners*
20,1,$1+$1,$2,$3,$4,$5,0*
20,1,$1+$1,$4,$5,$6,$7,0*
20,1,$1+$1,$6,$7,$8,$9,0*
20,1,$1+$1,$8,$9,$2,$3,0*%
G04 Aperture macros list end*
%ADD10RoundRect,0.200000X0.200000X0.275000X-0.200000X0.275000X-0.200000X-0.275000X0.200000X-0.275000X0*%
%ADD11RoundRect,0.200000X-0.200000X-0.275000X0.200000X-0.275000X0.200000X0.275000X-0.200000X0.275000X0*%
%ADD12RoundRect,0.137500X-0.600000X-0.137500X0.600000X-0.137500X0.600000X0.137500X-0.600000X0.137500X0*%
%ADD13RoundRect,0.137500X-0.137500X-0.600000X0.137500X-0.600000X0.137500X0.600000X-0.137500X0.600000X0*%
%ADD14RoundRect,0.218750X-0.218750X-0.256250X0.218750X-0.256250X0.218750X0.256250X-0.218750X0.256250X0*%
%ADD15RoundRect,0.150000X-0.825000X-0.150000X0.825000X-0.150000X0.825000X0.150000X-0.825000X0.150000X0*%
%ADD16RoundRect,0.225000X-0.225000X-0.250000X0.225000X-0.250000X0.225000X0.250000X-0.225000X0.250000X0*%
G04 APERTURE END LIST*
D10*
%TO.C,R1*%
X151600000Y-85800000D03*
X149950000Y-85800000D03*
%TD*%
D11*
%TO.C,R3*%
X163950000Y-99000000D03*
X165600000Y-99000000D03*
%TD*%
%TO.C,R2*%
X168550000Y-99000000D03*
X170200000Y-99000000D03*
%TD*%
D12*
%TO.C,U1*%
X152837500Y-91600000D03*
X152837500Y-92400000D03*
X152837500Y-93200000D03*
X152837500Y-94000000D03*
X152837500Y-94800000D03*
X152837500Y-95600000D03*
X152837500Y-96400000D03*
X152837500Y-97200000D03*
D13*
X154200000Y-98562500D03*
X155000000Y-98562500D03*
X155800000Y-98562500D03*
X156600000Y-98562500D03*
X157400000Y-98562500D03*
X158200000Y-98562500D03*
X159000000Y-98562500D03*
X159800000Y-98562500D03*
D12*
X161162500Y-97200000D03*
X161162500Y-96400000D03*
X161162500Y-95600000D03*
X161162500Y-94800000D03*
X161162500Y-94000000D03*
X161162500Y-93200000D03*
X161162500Y-92400000D03*
X161162500Y-91600000D03*
D13*
X159800000Y-90237500D03*
X159000000Y-90237500D03*
X158200000Y-90237500D03*
X157400000Y-90237500D03*
X156600000Y-90237500D03*
X155800000Y-90237500D03*
X155000000Y-90237500D03*
X154200000Y-90237500D03*
%TD*%
D11*
%TO.C,R4*%
X167400000Y-92800000D03*
X169050000Y-92800000D03*
%TD*%
D14*
%TO.C,FB1*%
X155625000Y-104200000D03*
X157200000Y-104200000D03*
%TD*%
D10*
%TO.C,R6*%
X162250000Y-109400000D03*
X160600000Y-109400000D03*
%TD*%
D15*
%TO.C,U2*%
X167050000Y-103790000D03*
X167050000Y-105060000D03*
X167050000Y-106330000D03*
X167050000Y-107600000D03*
X172000000Y-107600000D03*
X172000000Y-106330000D03*
X172000000Y-105060000D03*
X172000000Y-103790000D03*
%TD*%
D11*
%TO.C,R5*%
X163550000Y-92800000D03*
X165200000Y-92800000D03*
%TD*%
D16*
%TO.C,C1*%
X161650000Y-104200000D03*
X163200000Y-104200000D03*
%TD*%
M02*
